<?xml version="1.0" standalone="no"?>
<!DOCTYPE svg PUBLIC "-//W3C//DTD SVG 20010904//EN"
 "http://www.w3.org/TR/2001/REC-SVG-20010904/DTD/svg10.dtd">
<svg version="1.0" xmlns="http://www.w3.org/2000/svg"
 width="96.000000pt" height="96.000000pt" viewBox="0 0 96.000000 96.000000"
 preserveAspectRatio="xMidYMid meet">
<metadata>
Created by potrace 1.14, written by Peter Selinger 2001-2017
</metadata>
<g transform="translate(0.000000,96.000000) scale(0.100000,-0.100000)"
fill="#000000" stroke="none">
<path d="M111 781 c-11 -11 -23 -31 -26 -43 -3 -13 -5 -139 -3 -280 3 -231 5
-259 21 -275 16 -17 46 -18 378 -18 l360 0 20 25 c18 24 19 41 17 297 -3 246
-5 274 -21 290 -16 16 -48 18 -372 21 -344 3 -355 2 -374 -17z m689 -341 l0
-200 -320 0 -320 0 0 200 0 200 320 0 320 0 0 -200z"/>
<path d="M273 575 c-13 -13 -23 -28 -23 -32 0 -4 21 -29 47 -55 l47 -48 -47
-48 c-26 -26 -47 -50 -47 -53 0 -4 11 -18 25 -33 l24 -26 81 80 81 80 -81 80
c-44 44 -81 80 -83 79 -1 0 -12 -11 -24 -24z"/>
<path d="M480 320 l0 -40 120 0 120 0 0 40 0 40 -120 0 -120 0 0 -40z"/>
</g>
</svg>
